<svg width="24" height="24" viewBox="0 0 24 24" fill="none" xmlns="http://www.w3.org/2000/svg">
<path d="M7.90838 12.0508C7.90838 12.0508 2.18033 17.7157 1.56112 18.6102C0.941919 19.5046 0.694183 20.25 1.56112 20.25C2.42807 20.25 18.7449 18.6102 20.7577 17.8648C22.7704 17.1194 23.3893 16.6722 22.7702 15.6286C22.1512 14.5851 15.1329 12.498 11.3142 11.3054C11.0046 11.2061 10.3853 10.888 10.3853 10.411C10.3853 9.81468 10.6949 9.66561 10.8498 9.36745C11.0046 9.0693 12.8623 7.72764 12.8623 6.38594C12.8623 5.04424 12.2431 4.14982 10.6949 3.85165C9.64728 3.64987 8.74055 3.72409 8.12131 4.29661C7.50207 4.86914 7.4974 5.72826 7.34725 6.25837" stroke="black" stroke-width="1.83333"/>
</svg>
