<svg width="24" height="24" viewBox="0 0 24 24" fill="none" xmlns="http://www.w3.org/2000/svg">
<path d="M6 7.06873V16.5539C6 17.9149 6 18.5954 6.20412 19.0118C6.58245 19.7837 7.41157 20.2273 8.26367 20.1139C8.7234 20.0527 9.28964 19.6753 10.4221 18.9203L10.4248 18.9185C10.8737 18.6192 11.0981 18.4696 11.333 18.3866C11.7642 18.2342 12.2348 18.2342 12.666 18.3866C12.9013 18.4698 13.1266 18.62 13.5773 18.9204C14.7098 19.6754 15.2767 20.0526 15.7364 20.1138C16.5885 20.2271 17.4176 19.7837 17.7959 19.0118C18 18.5954 18 17.9147 18 16.5539V7.06544C18 5.94752 18 5.38773 17.7822 4.96033C17.5905 4.584 17.2837 4.27826 16.9074 4.08652C16.4796 3.86853 15.9203 3.86853 14.8002 3.86853H9.2002C8.08009 3.86853 7.51962 3.86853 7.0918 4.08652C6.71547 4.27826 6.40973 4.584 6.21799 4.96033C6 5.38815 6 5.94862 6 7.06873Z" stroke="black" stroke-width="2" stroke-linecap="round" stroke-linejoin="round"/>
</svg>
